<svg xmlns="http://www.w3.org/2000/svg" version="1.1" xmlns:xlink="http://www.w3.org/1999/xlink" xmlns:svgjs="http://svgjs.com/svgjs" width="1440" height="560" preserveAspectRatio="none" viewBox="0 0 1440 560"><g mask="url(&quot;#SvgjsMask1000&quot;)" fill="none"><rect width="1440" height="560" x="0" y="0" fill="#0e2a47"></rect><path d="M0,322.069C82.249,323.554,163.913,406.464,237.177,369.055C309.05,332.356,307.761,228.722,332.959,152.057C355.337,83.971,372.988,17.497,376.256,-54.097C380.19,-140.27,400.843,-234.285,353.9,-306.656C305.684,-380.99,215.704,-422.758,128.182,-436.548C45.393,-449.592,-38.141,-420.384,-111.577,-379.995C-175.46,-344.86,-210.545,-278.909,-258.419,-223.921C-306.429,-168.777,-385.702,-129.263,-393.195,-56.533C-400.69,16.22,-321.786,66.691,-295.385,134.898C-266.586,209.3,-299.129,317.889,-231.738,360.591C-164.226,403.37,-79.912,320.627,0,322.069" fill="#0b2239"></path><path d="M1440 1139.037C1545.059 1119.664 1595.792 999.328 1690.167 949.268 1797.663 892.249 1948.429 921.146 2026.592 827.8879999999999 2107.147 731.775 2131.641 585.824 2095.4030000000002 465.767 2060.112 348.848 1944.116 277.891 1840.885 212.63099999999997 1758.413 160.49400000000003 1655.7350000000001 169.245 1565.949 131.05700000000002 1459.16 85.637 1381.044-48.706999999999994 1266.238-31.77800000000002 1153.865-15.20799999999997 1111.133 124.75900000000001 1035.281 209.30900000000003 957.819 295.654 823.114 354.49 815.851 470.26099999999997 808.518 587.138 946.216 656.961 1000.691 760.626 1050.959 856.2850000000001 1040.69 983.4110000000001 1122.566 1053.937 1207.282 1126.9099999999999 1330.042 1159.3139999999999 1440 1139.037" fill="#113255"></path></g><defs><mask id="SvgjsMask1000"><rect width="1440" height="560" fill="#ffffff"></rect></mask></defs></svg>