<svg xmlns="http://www.w3.org/2000/svg" version="1.1" xmlns:xlink="http://www.w3.org/1999/xlink" xmlns:svgjs="http://svgjs.com/svgjs" width="1440" height="560" preserveAspectRatio="none" viewBox="0 0 1440 560"><g mask="url(&quot;#SvgjsMask1000&quot;)" fill="none"><rect width="1440" height="560" x="0" y="0" fill="#0e2a47"></rect><path d="M 0,30 C 57.6,56.4 172.8,163.2 288,162 C 403.2,160.8 460.8,17.2 576,24 C 691.2,30.8 748.8,183.2 864,196 C 979.2,208.8 1036.8,85 1152,88 C 1267.2,91 1382.4,186.4 1440,211L1440 560L0 560z" fill="#184a7e"></path><path d="M 0,547 C 96,509.4 288,367 480,359 C 672,351 768,507.4 960,507 C 1152,506.6 1344,387 1440,357L1440 560L0 560z" fill="#2264ab"></path></g><defs><mask id="SvgjsMask1000"><rect width="1440" height="560" fill="#ffffff"></rect></mask></defs></svg>